<?xml version="1.0" encoding="utf-8"?>
<!-- Generator: Adobe Illustrator 23.0.1, SVG Export Plug-In . SVG Version: 6.00 Build 0)  -->
<svg version="1.1" id="Calque_1" xmlns="http://www.w3.org/2000/svg" xmlns:xlink="http://www.w3.org/1999/xlink" x="0px" y="0px"
	 viewBox="0 0 36.7 36.7" style="enable-background:new 0 0 36.7 36.7;" xml:space="preserve">
<style type="text/css">
	.st0{fill:none;}
	.st1{fill:#383435;}
	.st2{fill:#FFFFFF;}
</style>
<g>
	<circle class="st0" cx="18.4" cy="18.4" r="13.5"/>
</g>
<path class="st1" d="M21.9,10.7l0.8,0.5l0,0l-4.6,8c-0.3,0.5-0.9,0.6-1.3,0.4l0,0c-0.5-0.3-0.6-0.9-0.4-1.3l4.1-7.1
	C20.9,10.5,21.5,10.4,21.9,10.7z"/>
<circle class="st2" cx="18.4" cy="18.4" r="11.6"/>
<path class="st1" d="M21.9,10.7l0.8,0.5l0,0l-4.6,8c-0.3,0.5-0.9,0.6-1.3,0.4l0,0c-0.5-0.3-0.6-0.9-0.4-1.3l4.1-7.1
	C20.9,10.5,21.5,10.4,21.9,10.7z"/>
<g>
	<path class="st1" d="M23.2,19l0,1l0,0l-5.8-0.2c-0.5,0-1-0.5-0.9-1c0,0,0,0,0,0l0,0c0-0.5,0.5-1,1-0.9c0,0,0,0,0,0l4.9,0.2
		C22.8,18,23.2,18.4,23.2,19z"/>
</g>
<path class="st1" d="M23.2,19l0,1l0,0l-5.8-0.2c-0.5,0-1-0.5-0.9-1c0,0,0,0,0,0l0,0c0-0.5,0.5-1,1-0.9c0,0,0,0,0,0l4.9,0.2
	C22.8,18,23.2,18.4,23.2,19z"/>
</svg>
