<?xml version="1.0" encoding="utf-8"?>
<!-- Generator: Adobe Illustrator 23.0.1, SVG Export Plug-In . SVG Version: 6.00 Build 0)  -->
<svg version="1.1" id="Calque_1" xmlns="http://www.w3.org/2000/svg" xmlns:xlink="http://www.w3.org/1999/xlink" x="0px" y="0px"
	 viewBox="0 0 124.1 105.9" style="enable-background:new 0 0 124.1 105.9;" xml:space="preserve">
<style type="text/css">
	.st0{fill:#FFB366;}
	.st1{fill:#2B2626;}
	.st2{fill:none;}
</style>
<g id="Groupe_1" transform="translate(-703.334 -4.471)">
	<g id="Tracé_10" transform="translate(732.999 4.471) rotate(30)">
		<path class="st0" d="M82.9,59.3l-58.2,0L-0.6,31.4L24.7,3l58.2,0l21.6,28.4L82.9,59.3z"/>
		<path class="st1" d="M85.7,4.3l-2.1-2.8l-2,0l-43.4,0l-3.5,0L24,1.5L-2.6,31.4l14.4,15.9l5.9,6.6l6.3,6.9l41.6,0l3.5,0l14.6,0
			l22.8-29.4L85.7,4.3z M25.3,4.5l7.7,0l3.5,0l45.6,0l0.9,1.2l5.6,7.3l14,18.3L82.2,57.8l-11.4,0l-3.5,0l-42,0L14.4,45.7l-3.1-3.5
			L1.4,31.4L25.3,4.5z"/>
	</g>
	<g id="Tracé_11" transform="translate(827.403 55.851) rotate(150)">
		<polygon class="st2" points="15.5,18.5 16.9,15.3 20,11.9 23,8.4 29.2,1.5 70.8,1.5 72.5,1.5 74.2,1.5 76,4.5 87.3,4.5 
			107.8,31.4 93.9,49.4 91.2,57.8 88.8,60.8 88.6,60.8 88.6,60.8 87,60.8 43.4,60.8 41.7,60.8 41.7,60.8 40,60.8 38.2,57.8 
			30.5,57.8 6.6,31.4 16.5,20.2 		"/>
		<path class="st1" d="M15.5,18.5l1,1.7l1.1-1.2l1.9-2.1l11-12.4l42,0l1.7,0l1.7,0l-1.7-3l-1.7,0l-1.7,0l-41.6,0L23,8.4L20,11.9
			l-3.1,3.4L15.5,18.5z M40,57.8l-1.7,0l1.7,3l1.7,0l0,0l1.7,0l43.6,0l1.6,0l0,0l0.2,0l2.3-3l2.7-8.4l-2.7,3.5l-2.7,3.5l-1.1,1.4
			l-45.6,0L40,57.8z"/>
	</g>
	<path id="Soustraction_3" class="st1" d="M752,68h-7.1c-5.8,0-10.6-4.7-10.6-10.6s4.7-10.6,10.6-10.6h7.1c1.1,0,2.3,0.2,3.3,0.5
		c-5.6,2.3-8.2,8.7-5.9,14.3c1.1,2.6,3.1,4.7,5.7,5.9C754.1,67.8,753,68,752,68z"/>
	<path id="Soustraction_4" class="st1" d="M772.3,46.8h7.1c5.8,0,10.6,4.7,10.6,10.6S785.2,68,779.3,68h-7.1c-1.1,0-2.3-0.2-3.3-0.5
		c5.6-2.3,8.2-8.7,5.9-14.3c-1.1-2.6-3.1-4.7-5.7-5.9C770.1,47,771.2,46.8,772.3,46.8z"/>
	<path id="Rectangle_16" class="st1" d="M762.1,50.7L762.1,50.7c3.7,0,6.7,3,6.7,6.7l0,0c0,3.7-3,6.7-6.7,6.7l0,0
		c-3.7,0-6.7-3-6.7-6.7l0,0C755.3,53.7,758.4,50.7,762.1,50.7z"/>
	<path id="Rectangle_17" class="st0" d="M762.1,54.2L762.1,54.2c1.2,0,2.2,1,2.2,2.2v2c0,1.2-1,2.2-2.2,2.2l0,0
		c-1.2,0-2.2-1-2.2-2.2v-2C759.9,55.2,760.9,54.2,762.1,54.2z"/>
</g>
</svg>
