<svg xmlns="http://www.w3.org/2000/svg" xmlns:xlink="http://www.w3.org/1999/xlink" viewBox="0 0 39.645 49.32">
  <defs>
    <style>
      .cls-1 {
        fill: url(#radial-gradient);
      }

      .cls-2 {
        fill: #ffb366;
      }
    </style>
    <radialGradient id="radial-gradient" cx="0.5" cy="0.928" r="1.649" gradientTransform="matrix(0.303, -0.378, 0.122, 0.912, 0.235, 0.27)" gradientUnits="objectBoundingBox">
      <stop offset="0" stop-color="#635b42"/>
      <stop offset="1" stop-color="#ffac4d"/>
    </radialGradient>
  </defs>
  <g id="Groupe_7" data-name="Groupe 7" transform="translate(-37.279 -141.366)">
    <g id="Groupe_6" data-name="Groupe 6" transform="translate(0 5)">
      <path id="Soustraction_9" data-name="Soustraction 9" class="cls-1" d="M19.336,12.829a52.1,52.1,0,0,1-12.963-1.5L0,5.024,1.748,3.277A20.988,20.988,0,0,1,6.882,1.371,52.486,52.486,0,0,1,19.336,0C29.021,0,37.358,2.192,39.16,5.213L33.248,11.06A49.973,49.973,0,0,1,19.336,12.829Z" transform="translate(37.741 148.626)"/>
      <path id="Soustraction_6" data-name="Soustraction 6" class="cls-2" d="M20.911,33.735H18.734a2,2,0,0,1-2-2V18.872L0,2.138,2.12.018c3.52,2.041,10.212,3.308,17.464,3.308,7.279,0,13.983-1.275,17.5-3.326h.426l2.138,2.138L22.91,18.873V31.735A2,2,0,0,1,20.911,33.735Z" transform="translate(37.279 151.951)"/>
    </g>
    <rect id="Rectangle_43" data-name="Rectangle 43" class="cls-2" width="5" height="5" rx="2" transform="translate(64.67 148.5) rotate(-30)"/>
    <rect id="Rectangle_44" data-name="Rectangle 44" class="cls-2" width="7" height="7" rx="2" transform="translate(54.304 151.134) rotate(-30)"/>
    <rect id="Rectangle_45" data-name="Rectangle 45" class="cls-2" width="5" height="5" rx="2" transform="translate(59.304 143.866) rotate(-30)"/>
  </g>
</svg>
